<svg xmlns="http://www.w3.org/2000/svg" width="200" height="200" viewBox="0 0 200 200" role="img" aria-labelledby="title">
  <title id="title">QR Code estilizado para baixar CV</title>
  <rect width="200" height="200" fill="#0B0D12" rx="24" />
  <rect x="16" y="16" width="56" height="56" fill="#1E90FF" rx="12" opacity="0.5" />
  <rect x="128" y="16" width="56" height="56" fill="#1E90FF" rx="12" opacity="0.5" />
  <rect x="16" y="128" width="56" height="56" fill="#1E90FF" rx="12" opacity="0.5" />
  <rect x="76" y="76" width="48" height="48" fill="#1E90FF" rx="10" opacity="0.6" />
  <rect x="132" y="96" width="40" height="40" fill="#1E90FF" rx="10" opacity="0.35" />
  <rect x="96" y="140" width="32" height="32" fill="#1E90FF" rx="8" opacity="0.5" />
  <rect x="52" y="108" width="28" height="28" fill="#1E90FF" rx="8" opacity="0.4" />
  <rect x="112" y="36" width="24" height="24" fill="#1E90FF" rx="6" opacity="0.4" />
  <rect x="156" y="152" width="24" height="24" fill="#1E90FF" rx="6" opacity="0.4" />
  <rect x="36" y="168" width="20" height="20" fill="#1E90FF" rx="6" opacity="0.4" />
  <rect x="168" y="80" width="16" height="16" fill="#1E90FF" rx="5" opacity="0.4" />
</svg>
