<svg width="360" height="420" viewBox="0 0 360 420" fill="none" xmlns="http://www.w3.org/2000/svg" role="img" aria-labelledby="title desc">
  <title id="title">Retrato estilizado de Gabriel</title>
  <desc id="desc">Silhueta minimalista em tons azul marinho com detalhes em ciano</desc>
  <defs>
    <linearGradient id="bg" x1="0" y1="0" x2="1" y2="1">
      <stop offset="0%" stop-color="#0A1A3A" />
      <stop offset="100%" stop-color="#1E2F62" />
    </linearGradient>
    <linearGradient id="glow" x1="0" y1="0" x2="1" y2="1">
      <stop offset="0%" stop-color="#1E90FF" stop-opacity="0.4" />
      <stop offset="100%" stop-color="#7FD4FF" stop-opacity="0.1" />
    </linearGradient>
  </defs>
  <rect width="360" height="420" rx="48" fill="url(#bg)" />
  <circle cx="180" cy="140" r="110" fill="#121826" opacity="0.7" />
  <circle cx="180" cy="136" r="100" fill="#101a2f" />
  <path d="M140 320C140 272 160 228 180 228C200 228 220 272 220 320" fill="#1D2B4F" />
  <path d="M180 320C220 320 248 340 248 368C248 392 216 404 180 404C144 404 112 392 112 368C112 340 140 320 180 320Z" fill="#10192F" />
  <path d="M124 158C128 118 158 92 180 92C202 92 232 118 236 158C236 186 226 210 208 222C200 228 160 228 152 222C134 210 124 186 124 158Z" fill="#1E2F62" />
  <path d="M160 172C166 178 194 178 200 172" stroke="#7FD4FF" stroke-width="6" stroke-linecap="round" />
  <circle cx="150" cy="150" r="12" fill="#0B0D12" />
  <circle cx="210" cy="150" r="12" fill="#0B0D12" />
  <circle cx="150" cy="150" r="6" fill="#7FD4FF" />
  <circle cx="210" cy="150" r="6" fill="#7FD4FF" />
  <path d="M150 118C160 110 200 110 210 118" stroke="#7FD4FF" stroke-width="8" stroke-linecap="round" opacity="0.4" />
  <path d="M120 212L96 220C78 226 68 248 74 266C82 290 122 298 134 276" stroke="#1E90FF" stroke-width="10" stroke-linecap="round" stroke-linejoin="round" opacity="0.3" />
  <path d="M240 212L264 220C282 226 292 248 286 266C278 290 238 298 226 276" stroke="#1E90FF" stroke-width="10" stroke-linecap="round" stroke-linejoin="round" opacity="0.3" />
  <ellipse cx="180" cy="360" rx="96" ry="46" fill="url(#glow)" opacity="0.7" />
</svg>
